<svg version="1.1" xmlns="http://www.w3.org/2000/svg" width="488" height="474">
<path d="M0 0 C4.82604496 2.16615659 8.08472271 5.64072688 11.8125 9.3125 C12.51826172 9.97701172 13.22402344 10.64152344 13.95117188 11.32617188 C14.61310547 11.97779297 15.27503906 12.62941406 15.95703125 13.30078125 C16.56522705 13.89028564 17.17342285 14.47979004 17.80004883 15.0871582 C19 17 19 17 18.82276535 19.32535267 C17.81550575 22.59975429 16.38002624 24.21859097 14.03570557 26.7071991 C13.21828133 27.57988623 12.40085709 28.45257336 11.55866241 29.35170555 C7.55088893 33.49987461 3.51608841 37.61495726 -0.57128906 41.68481445 C-1.93646667 43.05021111 -1.93646667 43.05021111 -3.32922363 44.44319153 C-5.79365754 46.90790899 -8.26113388 49.36955902 -10.7292223 51.83061624 C-13.3258387 54.42091571 -15.91956065 57.01411042 -18.51361084 59.60697937 C-23.41753991 64.50781601 -28.32400798 69.40610231 -33.231426 74.30344504 C-38.80359651 79.86442247 -44.37291677 85.42825068 -49.941998 90.99232161 C-59.46329985 100.50496199 -68.98670827 110.01548851 -78.51251221 119.52362061 C-79.29730957 120.30697281 -80.08210693 121.09032501 -80.89068604 121.89741516 C-81.61060982 122.61509378 -82.3305336 123.33277241 -83.07227325 124.07219887 C-84.24680546 125.24677639 -85.41800825 126.42471164 -86.58318329 127.60857201 C-91.69148186 132.79556672 -97.05124382 135.69792241 -104.40782166 136.26069641 C-106.2747744 136.2676075 -106.2747744 136.2676075 -108.17944336 136.2746582 C-108.87133255 136.27976913 -109.56322174 136.28488007 -110.27607727 136.29014587 C-112.54742246 136.30396694 -114.81846168 136.30309089 -117.08984375 136.30078125 C-118.67875785 136.30467215 -120.26767091 136.30900763 -121.85658264 136.31376648 C-125.18103411 136.32121247 -128.50537935 136.3209491 -131.82983398 136.31567383 C-136.07774221 136.3098797 -140.32521434 136.32681645 -144.5730505 136.3500185 C-147.85285459 136.36479123 -151.13255447 136.36562277 -154.41238594 136.36250877 C-155.97799099 136.36302015 -157.54360216 136.36822333 -159.10917473 136.37832069 C-161.30345421 136.39073782 -163.4968948 136.38386298 -165.69116211 136.37231445 C-167.55930824 136.37325859 -167.55930824 136.37325859 -169.4651947 136.3742218 C-176.97599073 135.5790709 -182.64085672 131.53984004 -188.5625 127.0625 C-196.137404 117.54531292 -196.73495797 106.40417935 -196.59375 94.7421875 C-196.59203426 93.22095841 -196.59210927 91.69972636 -196.59387207 90.17849731 C-196.59223326 87.02007038 -196.5737852 83.86236578 -196.54199219 80.70410156 C-196.50197556 76.6565738 -196.49799489 72.609973 -196.50545502 68.56228447 C-196.50851975 65.43443297 -196.4964277 62.30679014 -196.47932434 59.17898941 C-196.47230301 57.6854597 -196.46916876 56.19190641 -196.47001648 54.69836044 C-196.46822144 52.62122156 -196.44687874 50.54520641 -196.41992188 48.46826172 C-196.41150269 47.28835663 -196.4030835 46.10845154 -196.39440918 44.89279175 C-196 42 -196 42 -194.47375488 40.09573364 C-193.98741577 39.73414154 -193.50107666 39.37254944 -193 39 C-189.4279519 40.56903047 -186.72870589 42.74788705 -183.75 45.25 C-179.81439986 48.52791295 -175.84093513 51.66095043 -171.65625 54.61328125 C-169.02535832 56.81603254 -167.20605859 58.81274479 -166.60800171 62.2585907 C-166.59587143 63.49316765 -166.59587143 63.49316765 -166.58349609 64.75268555 C-166.55864639 66.15885384 -166.55864639 66.15885384 -166.53329468 67.59342957 C-166.53004181 68.597715 -166.52678894 69.60200043 -166.5234375 70.63671875 C-166.50785797 71.6719014 -166.49227844 72.70708405 -166.47622681 73.77363586 C-166.42870262 77.07824979 -166.40093356 80.38265201 -166.375 83.6875 C-166.338559 87.00291156 -166.29800687 90.31820177 -166.25234985 93.63349915 C-166.22503615 95.69673069 -166.20372307 97.76005158 -166.18881226 99.82341003 C-166.17855011 100.75139908 -166.16828796 101.67938812 -166.15771484 102.63549805 C-166.14797134 103.86649483 -166.14797134 103.86649483 -166.13803101 105.12236023 C-166.20459853 107.01318886 -166.20459853 107.01318886 -165 108 C-163.37509884 108.11431281 -161.74527926 108.15959628 -160.11645508 108.17700195 C-159.07479691 108.18983719 -158.03313873 108.20267242 -156.95991516 108.21589661 C-155.25692513 108.22697701 -155.25692513 108.22697701 -153.51953125 108.23828125 C-152.35878586 108.246353 -151.19804047 108.25442474 -150.00212097 108.26274109 C-147.53813175 108.27660411 -145.07412314 108.28731628 -142.61010742 108.29516602 C-138.8458185 108.31234792 -135.08241448 108.35621215 -131.31835938 108.40039062 C-128.92708981 108.41051968 -126.53581275 108.41903512 -124.14453125 108.42578125 C-122.45672295 108.45204338 -122.45672295 108.45204338 -120.7348175 108.47883606 C-110.29210139 108.44994413 -105.65899945 103.97085011 -98.5546875 96.890625 C-97.86239044 96.20498474 -97.17009338 95.51934448 -96.45681763 94.81292725 C-95.00032984 93.36652529 -93.54650725 91.91743515 -92.09521484 90.46582031 C-89.8853937 88.26037312 -87.6600749 86.07142331 -85.43359375 83.8828125 C-84.01464533 82.46973305 -82.59664462 81.0557012 -81.1796875 79.640625 C-80.51919403 78.99450256 -79.85870056 78.34838013 -79.17819214 77.68267822 C-75.47930736 73.94714231 -72.92478461 70.49889254 -70.86024475 65.64656067 C-69.53113322 63.10256052 -67.50173505 62.27561833 -65 61 C-63.26781405 59.40126443 -61.58127454 57.75200551 -59.9375 56.0625 C-59.10089844 55.20785156 -58.26429688 54.35320312 -57.40234375 53.47265625 C-55.9337493 51.96107854 -54.48336448 50.43117907 -53.06640625 48.87109375 C-51 47 -51 47 -48.42749023 45.92358398 C-43.52031127 43.16956568 -40.00737149 39.3559052 -36.09375 35.3515625 C-35.25082397 34.50201996 -34.40789795 33.65247742 -33.53942871 32.77719116 C-30.85240823 30.06681799 -28.1757597 27.34648684 -25.5 24.625 C-22.82255215 21.91239229 -20.14294604 19.20196799 -17.46057129 16.49423218 C-15.7944722 14.81127304 -14.1314767 13.12523403 -12.4720459 11.43569946 C-8.47214751 7.38450811 -4.45723654 3.54423345 0 0 Z " fill="#B879AD" transform="translate(292,239)"/>
<path d="M0 0 C1.95556419 -0.01250423 3.91110321 -0.0299823 5.86657715 -0.05255127 C8.63498338 -0.08250471 11.4027754 -0.09233597 14.17132568 -0.09695435 C14.99300232 -0.10925583 15.81467896 -0.12155731 16.66125488 -0.13423157 C25.67166533 -0.09986616 32.33762038 3.61945974 39.00726318 9.66867065 C41.26200036 12.1671632 42.79091852 14.23995284 44.31976318 17.23117065 C44.65121338 17.86313354 44.98266357 18.49509644 45.32415771 19.14620972 C48.94310575 26.91459749 48.81233796 34.41758722 48.63226318 42.79367065 C48.61518384 44.27526268 48.59958453 45.75687242 48.58538818 47.23849487 C48.53155673 51.90363735 48.43194406 56.56710416 48.31976318 61.23117065 C48.3008905 62.0235614 48.28201782 62.81595215 48.26257324 63.63235474 C48.01417401 73.83433637 47.69576669 84.03307564 47.31976318 94.23117065 C45.33976318 95.22117065 45.33976318 95.22117065 43.31976318 96.23117065 C38.51685088 92.44198779 33.72527967 88.63849092 29.06976318 84.66867065 C28.48710693 84.17238159 27.90445068 83.67609253 27.30413818 83.1647644 C26.64929443 82.52667847 25.99445068 81.88859253 25.31976318 81.23117065 C24.83161636 80.78527084 24.34346954 80.33937103 23.8405304 79.87995911 C19.65380681 75.64818386 18.62069871 72.5069795 18.51316833 66.6027832 C18.53151482 65.18520218 18.53151482 65.18520218 18.55023193 63.73898315 C18.53889725 62.75243744 18.52756256 61.76589172 18.5158844 60.74945068 C18.48528183 57.61781409 18.4949847 54.48790527 18.50726318 51.35617065 C18.49310767 48.20357042 18.47078806 45.05114621 18.44508362 41.89862061 C18.43200868 39.94107856 18.42731052 37.98345986 18.43162537 36.02587891 C18.4310463 35.14761444 18.43046722 34.26934998 18.42987061 33.36447144 C18.43242355 32.58838531 18.4349765 31.81229919 18.43760681 31.01269531 C18.51461956 29.20639589 18.51461956 29.20639589 17.31976318 28.23117065 C15.57227966 28.1165541 13.8201829 28.07154151 12.06903076 28.0541687 C10.94728958 28.04133347 9.8255484 28.02849823 8.66981506 28.01527405 C7.44699326 28.00788712 6.22417145 28.00050018 4.96429443 27.9928894 C3.71476486 27.98481766 2.46523529 27.97674591 1.17784119 27.96842957 C-1.47451505 27.95456583 -4.12674602 27.94355707 -6.77911377 27.93600464 C-10.16758414 27.9249709 -13.55539218 27.89061494 -16.94362926 27.85083294 C-20.18258888 27.81829866 -23.42160746 27.81388053 -26.66070557 27.8053894 C-27.87340622 27.78788132 -29.08610687 27.77037323 -30.33555603 27.75233459 C-40.05145595 27.77732314 -44.32960044 30.66181527 -51.05937195 37.35806274 C-51.70640579 38.0122821 -52.35343964 38.66650146 -53.02008057 39.34054565 C-53.7052626 40.02618591 -54.39044464 40.71182617 -55.09638977 41.41824341 C-56.54004663 42.86491013 -57.98128362 44.31399528 -59.42022705 45.76535034 C-61.60212535 47.96542911 -63.79184272 50.15747585 -65.98297119 52.34835815 C-67.39164525 53.76195152 -68.7998632 55.17599957 -70.20758057 56.59054565 C-70.85259018 57.23666809 -71.49759979 57.88279053 -72.16215515 58.54849243 C-75.97366958 62.39917907 -79.58365996 66.35712028 -83.06990051 70.50564575 C-84.66046158 72.20998088 -86.24004051 73.450127 -88.18023682 74.73117065 C-91.55485775 76.99581693 -93.94644776 79.63047409 -96.54644775 82.73678589 C-105.32259324 92.99603972 -114.84913508 102.58652096 -124.39068604 112.12692261 C-126.44712391 114.18557594 -128.49537609 116.25215807 -130.54351807 118.31906128 C-131.87506027 119.6535338 -133.20707465 120.98753539 -134.53961182 122.3210144 C-135.13876404 122.92735214 -135.73791626 123.53368988 -136.35522461 124.15840149 C-140.43562802 128.21720891 -144.70610582 132.28495361 -149.68023682 135.23117065 C-154.88602064 134.67313509 -158.09849596 129.9857424 -161.48687744 126.30734253 C-164.60087475 123.03433259 -167.54214111 121.02901783 -171.68023682 119.23117065 C-170.63031288 115.12692253 -169.39367587 112.75487998 -166.35919189 109.84420776 C-164.23502571 107.80343912 -162.16960116 105.7082855 -160.09820557 103.61398315 C-158.35478508 101.86131025 -156.61129347 100.1087081 -154.86773682 98.35617065 C-154.00342041 97.48347534 -153.139104 96.61078003 -152.24859619 95.7116394 C-140.42505524 83.84348132 -140.42505524 83.84348132 -136.68023682 81.23117065 C-135.69023682 81.23117065 -134.70023682 81.23117065 -133.68023682 81.23117065 C-133.27226128 80.33584405 -133.27226128 80.33584405 -132.85604382 79.42243004 C-131.70358644 77.27468552 -130.58192314 75.8837428 -128.86732483 74.17102051 C-128.29411499 73.59361618 -127.72090515 73.01621185 -127.13032532 72.42131042 C-126.50331223 71.79991684 -125.87629913 71.17852325 -125.23028564 70.53829956 C-124.56824127 69.87435684 -123.9061969 69.21041412 -123.22409058 68.52635193 C-121.03333967 66.33189564 -118.8354674 64.14472633 -116.63726807 61.95773315 C-115.10953412 60.43119179 -113.58217017 58.90428005 -112.05516052 57.37701416 C-108.85115758 54.17457594 -105.64382199 50.97552625 -102.43389893 47.77902222 C-98.33112461 43.69318726 -94.23491267 39.60085163 -90.14098072 35.50615883 C-86.98503432 32.35048527 -83.82648084 29.19743211 -80.66705894 26.04523849 C-79.15668199 24.53803199 -77.64689961 23.03022942 -76.13773537 21.52180862 C-74.02003854 19.40629551 -71.89907074 17.29411686 -69.77716064 15.18283081 C-68.85182274 14.25681313 -68.85182274 14.25681313 -67.90779114 13.31208801 C-58.22765448 3.70224763 -53.60241293 1.04873203 -39.80523682 0.66867065 C-39.09748108 0.64848877 -38.38972534 0.62830688 -37.66052246 0.60751343 C-25.10972533 0.25947109 -12.55531939 0.07008016 0 0 Z " fill="#EE8E52" transform="translate(341.68023681640625,90.76882934570313)"/>
<path d="M0 0 C0.70967422 -0.00350464 1.41934845 -0.00700928 2.15052795 -0.01062012 C4.47838334 -0.01936891 6.805931 -0.01361529 9.13378906 -0.00683594 C10.75710101 -0.00818396 12.38041257 -0.01012564 14.00372314 -0.01263428 C17.39623887 -0.01557572 20.78864894 -0.01131724 24.18115234 -0.00195312 C28.53484308 0.00947737 32.8882882 0.00285316 37.24197006 -0.00909805 C40.58933375 -0.0163121 43.9366388 -0.01403147 47.28400421 -0.00884247 C48.89001749 -0.00750659 50.49603605 -0.00915153 52.10204315 -0.01380157 C54.34030874 -0.01886337 56.57817084 -0.01116351 58.81640625 0 C60.09070496 0.00159119 61.36500366 0.00318237 62.67791748 0.00482178 C65.64941406 0.25878906 65.64941406 0.25878906 67.64941406 2.25878906 C67.64941406 6.91158433 65.01756692 9.56674069 62.12207031 12.90332031 C60.64941406 14.25878906 60.64941406 14.25878906 58.64941406 14.25878906 C58.55144531 14.83371094 58.45347656 15.40863281 58.35253906 16.00097656 C57.50433014 18.72466966 56.27293207 20.24146195 54.39941406 22.38378906 C53.81675781 23.06699219 53.23410156 23.75019531 52.63378906 24.45410156 C47.54573396 29.08142726 41.6375884 28.58169741 35.13378906 28.63769531 C34.12221741 28.65468979 33.11064575 28.67168427 32.06842041 28.68919373 C28.84548125 28.74222695 25.62255483 28.78259792 22.39941406 28.82128906 C19.16205444 28.86517327 15.92479585 28.91179226 12.68756104 28.96409607 C10.67441405 28.99613429 8.66117712 29.02299878 6.64788818 29.04432678 C5.74314758 29.05781662 4.83840698 29.07130646 3.90625 29.08520508 C2.70642487 29.09947289 2.70642487 29.09947289 1.48236084 29.11402893 C-0.36886906 29.06065879 -0.36886906 29.06065879 -1.35058594 30.25878906 C-1.46463905 31.79173621 -1.51015395 33.32985809 -1.52758789 34.86694336 C-1.54042313 35.84853928 -1.55325836 36.83013519 -1.56648254 37.84147644 C-1.57386948 38.91118179 -1.58125641 39.98088715 -1.58886719 41.08300781 C-1.59693893 42.17716507 -1.60501068 43.27132233 -1.61332703 44.39863586 C-1.62718967 46.72138881 -1.63790201 49.04416231 -1.64575195 51.36694336 C-1.66292943 54.91397039 -1.70679301 58.46005717 -1.75097656 62.00683594 C-1.76110606 64.26138636 -1.76962136 66.51594473 -1.77636719 68.77050781 C-1.79387527 69.83009201 -1.81138336 70.88967621 -1.829422 71.98136902 C-1.80813598 79.23799589 -0.44586505 82.83334684 4.48046875 88.28515625 C5.08793945 88.86942383 5.69541016 89.45369141 6.32128906 90.05566406 C6.98515625 90.7040625 7.64902344 91.35246094 8.33300781 92.02050781 C9.01492187 92.67664063 9.69683594 93.33277344 10.39941406 94.00878906 C11.77369672 95.33226645 13.14373707 96.66016808 14.50878906 97.99316406 C15.11174805 98.57291992 15.71470703 99.15267578 16.3359375 99.75 C17.64941406 101.25878906 17.64941406 101.25878906 17.64941406 103.25878906 C18.23207031 103.35933594 18.81472656 103.45988281 19.41503906 103.56347656 C22.05995267 104.38654408 23.36860151 105.51242047 25.39941406 107.38378906 C26.09035156 108.00898438 26.78128906 108.63417969 27.49316406 109.27832031 C28.20472656 109.931875 28.91628906 110.58542969 29.64941406 111.25878906 C31.06120955 112.53503172 32.47771752 113.80608523 33.89941406 115.07128906 C34.52332031 115.63460937 35.14722656 116.19792969 35.79003906 116.77832031 C37.61026656 118.33471379 37.61026656 118.33471379 39.82128906 119.33300781 C41.64941406 120.25878906 41.64941406 120.25878906 42.64941406 122.25878906 C43.39578125 122.3709375 44.14214844 122.48308594 44.91113281 122.59863281 C48.5148795 123.46743908 49.93887054 125.14761608 52.46191406 127.82128906 C53.25210938 128.64757812 54.04230469 129.47386719 54.85644531 130.32519531 C55.448125 130.96328125 56.03980469 131.60136719 56.64941406 132.25878906 C56.31941406 133.24878906 55.98941406 134.23878906 55.64941406 135.25878906 C54.32941406 134.92878906 53.00941406 134.59878906 51.64941406 134.25878906 C52.09671875 134.76667969 52.54402344 135.27457031 53.00488281 135.79785156 C53.91173828 136.83039063 53.91173828 136.83039063 54.83691406 137.88378906 C55.48144531 138.61726562 56.12597656 139.35074219 56.79003906 140.10644531 C58.26246146 141.81086704 59.68427246 143.55899577 61.08691406 145.32128906 C63.11421268 147.64526553 65.01565776 149.50285478 67.34350586 151.48461914 C71.43224419 155.0280223 75.28799467 158.75223712 79.10644531 162.58300781 C79.7760881 163.25169388 80.4457309 163.92037994 81.13566589 164.60932922 C82.5359262 166.00891478 83.93494767 167.4097408 85.33276367 168.81176758 C87.47038464 170.95478101 89.61333964 173.09235714 91.75683594 175.22949219 C93.12369343 176.59700993 94.49024099 177.96483753 95.85644531 179.33300781 C96.49395218 179.96849045 97.13145905 180.60397308 97.7882843 181.25871277 C105.62156077 189.13351623 105.62156077 189.13351623 105.70800781 192.62597656 C104.18818633 196.40590159 101.65851128 198.63910734 98.71191406 201.38378906 C94.34070325 205.51751369 94.34070325 205.51751369 90.64941406 210.25878906 C86.54970467 209.72753186 84.64914326 207.63564792 81.78477478 204.77510071 C81.3097817 204.3047876 80.83478863 203.8344745 80.34540182 203.34990948 C78.75454647 201.77102645 77.17463685 200.18162824 75.59448242 198.59204102 C74.4565387 197.4581621 73.31795769 196.32492245 72.17878723 195.192276 C69.08508351 192.11226551 66.00096522 189.02281976 62.91885829 185.9312098 C59.69229922 182.69706087 56.45843302 179.47023202 53.22572327 176.24223328 C47.79570437 170.81767545 42.37204799 165.38681632 36.9519043 159.95239258 C30.68865697 153.67283455 24.41469756 147.40413501 18.13503164 141.14099914 C12.74342351 135.76301545 7.35769717 130.37919399 1.97682101 124.9904725 C-1.23666987 121.77230828 -4.45214423 118.55619631 -7.67292976 115.34533119 C-10.7027317 112.32420991 -13.72507259 109.29581576 -16.74186897 106.26170921 C-17.84905149 105.15056706 -18.9587817 104.04195671 -20.07125473 102.93611145 C-21.59220598 101.42338669 -23.10357138 99.90167483 -24.6129303 98.37739563 C-25.46039353 97.52880132 -26.30785677 96.680207 -27.18100071 95.80589771 C-31.17155221 91.12096157 -32.72510038 87.10797331 -32.73876953 80.99731445 C-32.74822601 79.77907486 -32.7576825 78.56083527 -32.76742554 77.30567932 C-32.76135284 76.0024321 -32.75528015 74.69918488 -32.74902344 73.35644531 C-32.7510472 71.99173324 -32.75396116 70.62702223 -32.75772095 69.26231384 C-32.76213162 66.40857602 -32.75575526 63.55512085 -32.74169922 60.70141602 C-32.72462393 57.05878928 -32.73444532 53.41682659 -32.75241661 49.77422428 C-32.7633027 46.95762713 -32.75978589 44.1411851 -32.75203323 41.32458305 C-32.74908182 39.33333273 -32.75813264 37.34207617 -32.76742554 35.35084534 C-32.68424197 24.60692159 -30.38280215 17.83502865 -23.03808594 9.69628906 C-15.86257914 3.18827127 -9.96847927 0.0124164 0 0 Z M42.64941406 124.25878906 C44.2667913 127.49354355 45.12570629 128.96450927 47.64941406 131.25878906 C48.30941406 130.92878906 48.96941406 130.59878906 49.64941406 130.25878906 C47.33941406 128.27878906 45.02941406 126.29878906 42.64941406 124.25878906 Z " fill="#E16A5F" transform="translate(128.3505859375,90.7412109375)"/>
<path d="M0 0 C4.01158541 1.6053181 6.68309012 4.42826939 9.65136719 7.45605469 C10.20480804 8.01241608 10.7582489 8.56877747 11.32846069 9.14199829 C12.52779207 10.34892997 13.72480761 11.55816635 14.91976166 12.76943207 C16.81622097 14.69148202 18.71891303 16.60715968 20.62335205 18.52130127 C25.35513054 23.27978943 30.07607964 28.04897532 34.79724121 32.81799316 C38.78359338 36.84396778 42.77411937 40.86571776 46.77017975 44.88205719 C48.63537037 46.76011847 50.4943795 48.64415059 52.35321045 50.52850342 C57.31912141 55.53701616 62.18947522 60.36258496 67.97186279 64.43716431 C72.89242836 68.2288385 77.18066539 72.82834258 81.578125 77.20703125 C82.67805513 78.29797386 83.7780523 79.38884888 84.87811279 80.47966003 C87.17113148 82.75628228 89.45980437 85.03717782 91.74609375 87.32055664 C94.66158349 90.23065147 97.5929145 93.12421544 100.52840042 96.01411915 C102.80185255 98.25769684 105.06383865 100.51257583 107.32289886 102.7706356 C108.39838591 103.84194632 109.47795003 104.90918164 110.56180573 105.97202492 C119.75780322 115.00368423 124.39547702 121.39443042 124.58143616 134.52923584 C124.57647629 135.71068176 124.57151642 136.89212769 124.56640625 138.109375 C124.57260483 139.35317932 124.57880341 140.59698364 124.58518982 141.878479 C124.59406946 145.16819998 124.58305292 148.45716567 124.56610107 151.74682617 C124.56014869 155.0579659 124.60301612 158.36872673 124.63476562 161.6796875 C124.63571736 164.2395839 124.63385511 166.79948321 124.62890625 169.359375 C124.64216446 170.532724 124.65542267 171.706073 124.66908264 172.91497803 C124.56441348 182.36186382 122.67928791 191.58485451 116.5 199 C115.675 199.66 114.85 200.32 114 201 C113.236875 201.845625 112.47375 202.69125 111.6875 203.5625 C103.0939255 211.35667222 94.06772901 210.5286744 83.15625 210.390625 C81.41891127 210.38315543 79.68156407 210.37746588 77.94421387 210.37347412 C73.39351738 210.35827404 68.84333962 210.31904155 64.29284668 210.2746582 C59.64061498 210.23358338 54.98829865 210.21543714 50.3359375 210.1953125 C41.22373167 210.15254118 32.11190914 210.0843589 23 210 C21.91601562 206.23583984 21.91601562 206.23583984 22.671875 204.11328125 C23.02765625 203.51902344 23.3834375 202.92476562 23.75 202.3125 C24.26820313 201.40951172 24.26820313 201.40951172 24.796875 200.48828125 C26 199 26 199 29 198 C30.20882096 195.99983534 30.20882096 195.99983534 31 194 C31.66 194 32.32 194 33 194 C33.0928125 193.195625 33.0928125 193.195625 33.1875 192.375 C34.63494518 188.14400641 37.33616197 184.81765564 41.36199951 182.83924866 C44.04244731 181.98649589 46.15463612 181.73147868 48.95800781 181.69702148 C49.91539856 181.68037949 50.87278931 181.66373749 51.85919189 181.64659119 C52.88018982 181.63817703 53.90118774 181.62976288 54.953125 181.62109375 C56.53707062 181.59560204 56.53707062 181.59560204 58.15301514 181.56959534 C61.51861639 181.51654583 64.88420536 181.47618453 68.25 181.4375 C71.63001603 181.39361926 75.00993515 181.34700024 78.38983154 181.29469299 C80.49201167 181.2626494 82.59427805 181.23578664 84.69659424 181.21446228 C85.64137634 181.20097244 86.58615845 181.1874826 87.55957031 181.17358398 C88.39498352 181.16407211 89.23039673 181.15456024 90.09112549 181.14476013 C92.00941844 181.20778559 92.00941844 181.20778559 93 180 C93.11405311 178.46705285 93.15956801 176.92893098 93.17700195 175.3918457 C93.19625481 173.91945183 93.19625481 173.91945183 93.21589661 172.41731262 C93.22328354 171.34760727 93.23067047 170.27790192 93.23828125 169.17578125 C93.25038887 167.53454536 93.25038887 167.53454536 93.26274109 165.8601532 C93.27660373 163.53740025 93.28731608 161.21462675 93.29516602 158.8918457 C93.31234349 155.34481867 93.35620708 151.79873189 93.40039062 148.25195312 C93.41052013 145.9974027 93.41903542 143.74284434 93.42578125 141.48828125 C93.45204338 139.89890495 93.45204338 139.89890495 93.47883606 138.27742004 C93.45567821 130.38266583 91.49333482 126.55886404 86.06738281 120.87207031 C84.95081454 119.76915579 83.8291612 118.67137137 82.703125 117.578125 C82.10949158 116.99206482 81.51585815 116.40600464 80.90423584 115.80218506 C79.02428778 113.94650477 77.13798669 112.09749885 75.25 110.25 C72.74953292 107.80255974 70.25565269 105.3486802 67.765625 102.890625 C67.18758118 102.32917786 66.60953735 101.76773071 66.01397705 101.18927002 C64.63786944 99.83039199 63.31337955 98.41959706 62 97 C62 96.34 62 95.68 62 95 C61.44699219 94.95875 60.89398438 94.9175 60.32421875 94.875 C56.83927083 93.56301961 55.05797285 90.83768111 52.8125 88 C47.17782425 81.11537525 41.25184476 74.78130217 34.48461914 68.98681641 C29.401825 64.54439266 24.64909973 59.79271624 19.8828125 55.015625 C18.93511248 54.06860037 17.98726421 53.12172407 17.03927612 52.17498779 C15.06948043 50.20665443 13.10147472 48.23655399 11.13476562 46.26513672 C8.61639028 43.74102546 6.09349781 41.22148411 3.56927681 38.70322037 C1.15052569 36.28894734 -1.26441352 33.87087667 -3.6796875 31.453125 C-4.584841 30.54999573 -5.48999451 29.64686646 -6.4225769 28.71636963 C-7.25749664 27.87829773 -8.09241638 27.04022583 -8.95263672 26.17675781 C-9.68795624 25.4406427 -10.42327576 24.70452759 -11.18087769 23.94610596 C-13 22 -13 22 -15 19 C-14.79472021 14.48384466 -12.96307021 12.52156272 -9.75 9.5 C-8.53763672 8.34177734 -8.53763672 8.34177734 -7.30078125 7.16015625 C-6.54152344 6.44730469 -5.78226562 5.73445312 -5 5 C-3.97448402 3.98387089 -2.95246662 2.96416652 -1.9375 1.9375 C-1.298125 1.298125 -0.65875 0.65875 0 0 Z " fill="#CC5070" transform="translate(266,165)"/>
<path d="M0 0 C2.22568264 0.00314807 4.45001994 -0.02026067 6.67553711 -0.0456543 C8.10066565 -0.04792873 9.52579774 -0.04863012 10.95092773 -0.04760742 C12.2410376 -0.05058838 13.53114746 -0.05356934 14.86035156 -0.05664062 C21.44696873 0.63007512 25.03206766 3.56948248 29.43139648 8.31567383 C30.23391846 9.12866943 31.03644043 9.94166504 31.86328125 10.77929688 C32.69142334 11.62016846 33.51956543 12.46104004 34.37280273 13.32739258 C35.76857541 14.73695553 37.16436371 16.14650338 38.56103516 17.55517578 C39.51984884 18.52411835 40.47687004 19.49483779 41.43212891 20.46728516 C42.82424599 21.88369581 44.22343978 23.29314014 45.62280273 24.70239258 C46.86332397 25.95862427 46.86332397 25.95862427 48.12890625 27.24023438 C51.15653791 29.96930836 53.27467181 31.1647967 57.30639648 31.69067383 C63.28814624 30.97286386 67.32296538 26.66899973 71.40014648 22.50708008 C72.30120117 21.59506836 73.20225586 20.68305664 74.13061523 19.7434082 C75.06458333 18.78869615 75.99817458 17.8336153 76.93139648 16.87817383 C93.34164284 0.15894794 93.34164284 0.15894794 106.38256836 0.0324707 C107.09856201 0.02852295 107.81455566 0.0245752 108.55224609 0.02050781 C110.72549887 0.00331934 112.89721994 -0.04056424 115.07006836 -0.0847168 C116.45742699 -0.09484643 117.84479853 -0.10336169 119.23217773 -0.11010742 C120.49199463 -0.12468994 121.75181152 -0.13927246 123.04980469 -0.15429688 C126.97384937 0.39106346 128.61363027 1.60327603 131.43139648 4.31567383 C130.11947139 9.44410829 128.21179425 11.69450477 124.43139648 15.31567383 C123.26563728 16.48717652 122.10308126 17.66187222 120.94311523 18.83911133 C104.91054345 35.0111873 104.91054345 35.0111873 101.43139648 37.31567383 C100.44139648 37.31567383 99.45139648 37.31567383 98.43139648 37.31567383 C98.15967621 37.91271118 97.88795593 38.50974854 97.60800171 39.12487793 C96.45284191 41.27574324 95.32966618 42.6598085 93.60571289 44.3684082 C93.03817291 44.93579712 92.47063293 45.50318604 91.88589478 46.08776855 C91.27442596 46.68891479 90.66295715 47.29006104 90.03295898 47.90942383 C89.40159027 48.53796265 88.77022156 49.16650146 88.11972046 49.81408691 C86.10326712 51.81936799 84.07997942 53.81759016 82.05639648 55.81567383 C80.70177041 57.16026323 79.34759857 58.50531043 77.99389648 59.85083008 C74.96453619 62.86034057 71.93177956 65.86634344 68.8916626 68.86499023 C67.63600324 70.11240974 66.39788536 71.37744241 65.16333008 72.64575195 C63.00088725 74.73076872 61.33840036 75.55431567 58.43139648 76.31567383 C51.37290858 75.73947073 48.28945847 73.24999125 43.43139648 68.31567383 C42.52775864 67.41203598 41.62412079 66.50839813 40.69309998 65.57737732 C22.60586548 47.49014282 4.51863098 29.40290833 -13.56860352 11.31567383 C-14.34554062 10.59416641 -15.12247772 9.872659 -15.92295837 9.12928772 C-17.56860352 7.31567383 -17.56860352 7.31567383 -17.50610352 4.69067383 C-14.85031388 -2.03732657 -6.03940769 -0.01790928 0 0 Z " fill="#7899D5" transform="translate(185.568603515625,382.684326171875)"/>
<path d="M0 0 C1.72866199 1.60227441 3.38649621 3.2818146 5 5 C5.94707376 5.95437098 6.89794996 6.90498052 7.85218811 7.85218811 C26.90145874 26.90145874 45.95072937 45.95072937 65 65 C66.14878883 66.08691383 66.14878883 66.08691383 67.32078552 67.19578552 C69.37131949 69.39896036 69.67226915 71.05042237 70 74 C66.46688169 77.34463374 63.73406054 77.37462431 58.96875 77.36328125 C58.29581909 77.36377975 57.62288818 77.36427826 56.92956543 77.36479187 C55.51079344 77.36245769 54.09201681 77.35276776 52.67333984 77.33618164 C50.50710856 77.31257746 48.34210862 77.31562648 46.17578125 77.32226562 C33.40834398 77.27072432 33.40834398 77.27072432 28.8125 72.9375 C28.18408203 72.28007812 28.18408203 72.28007812 27.54296875 71.609375 C25.61048996 69.59372624 23.61462815 67.64672637 21.625 65.6875 C10 54.02355528 10 54.02355528 10 50 C9.443125 49.7525 8.88625 49.505 8.3125 49.25 C5.6006765 47.78414946 3.3847366 45.94544301 1 44 C-2.1836433 42.40817835 -5.53426643 42.60087521 -9 43 C-11.81780534 44.38885248 -11.81780534 44.38885248 -14 46 C-14.66 46 -15.32 46 -16 46 C-16.09667969 46.5775 -16.19335938 47.155 -16.29296875 47.75 C-17.14880199 50.47353561 -18.39443502 51.89711078 -20.3125 54 C-20.9415625 54.6909375 -21.570625 55.381875 -22.21875 56.09375 C-22.8065625 56.7228125 -23.394375 57.351875 -24 58 C-24.763125 58.825 -25.52625 59.65 -26.3125 60.5 C-28 62 -28 62 -30 62 C-30.0928125 62.8353125 -30.0928125 62.8353125 -30.1875 63.6875 C-31.33901755 66.96489609 -33.5034586 68.6195768 -36 71 C-36.66 71.886875 -37.32 72.77375 -38 73.6875 C-40.98162507 77.13500399 -43.744728 77.88137301 -48.2421875 78.30639648 C-51.46814388 78.36384799 -54.69341778 78.4167445 -57.91992188 78.42553711 C-59.99467911 78.4374694 -62.06649129 78.48673054 -64.140625 78.53710938 C-65.45546875 78.54419922 -66.7703125 78.55128906 -68.125 78.55859375 C-69.32382813 78.57204834 -70.52265625 78.58550293 -71.7578125 78.59936523 C-75.87294964 77.83862264 -77.35480403 76.14959242 -80 73 C-78.58203545 68.48829463 -76.36863663 66.25536114 -73 63 C-72.071306 62.071306 -71.142612 61.142612 -70.18577576 60.18577576 C-51.45718384 41.45718384 -32.72859192 22.72859192 -14 4 C-13.28244034 3.24119034 -12.56488068 2.48238068 -11.82557678 1.70057678 C-8.09254164 -1.77685181 -4.69104681 -1.13232164 0 0 Z " fill="#F8AF4C" transform="translate(247,5)"/>
<path d="M0 0 C3.58551214 0.76832403 5.17360403 3.00259859 7.625 5.5625 C8.91248336 6.84599886 10.20357695 8.12588159 11.49731445 9.40307617 C15.46397384 13.33418948 19.42456139 17.27136015 23.38305664 21.21069336 C25.09320781 22.91071079 26.80513846 24.60893991 28.51879883 26.30541992 C30.99246017 28.75495721 33.45972531 31.21077801 35.92578125 33.66796875 C37.08343742 34.81014107 37.08343742 34.81014107 38.26448059 35.97538757 C39.32139351 37.0320739 39.32139351 37.0320739 40.3996582 38.11010742 C41.02411331 38.73012131 41.64856842 39.35013519 42.29194641 39.98893738 C43.625 41.5625 43.625 41.5625 43.625 43.5625 C44.21023438 43.66691406 44.79546875 43.77132812 45.3984375 43.87890625 C53.24741996 46.28868157 60.03376702 55.88568692 65.625 61.5625 C66.35332031 62.25214844 67.08164062 62.94179687 67.83203125 63.65234375 C70.44891992 66.4402709 71.0434632 68.81481838 71.625 72.5625 C69.98634023 77.38208755 67.2055042 80.05863493 63.625 83.5625 C62.72136215 84.46613785 61.8177243 85.3697757 60.88670349 86.30079651 C42.79946899 104.38803101 24.7122345 122.4752655 6.625 140.5625 C5.90220352 141.3188121 5.17940704 142.07512421 4.43470764 142.85435486 C2.16983283 144.99212276 0.72742659 145.4829506 -2.375 145.5625 C-4.69355629 144.07199953 -5.2660925 142.98931858 -5.9453125 140.32739258 C-6.77434163 134.99287274 -6.48397325 129.63270509 -6.375 124.25 C-6.38144531 123.05181641 -6.38789063 121.85363281 -6.39453125 120.61914062 C-6.22765203 113.40757454 -5.44844534 109.23006475 -0.17529297 104.15258789 C0.41880371 103.62785889 1.01290039 103.10312988 1.625 102.5625 C2.40746094 101.72460938 3.18992187 100.88671875 3.99609375 100.0234375 C8.01899215 95.96251548 12.06724121 92.36908633 16.703125 89.03125 C21.76814452 85.16042207 27.02479601 80.79184437 27.9609375 74.1953125 C28.08766412 66.05946345 25.4216236 62.34933171 19.875 56.5625 C16.63086804 53.39661241 13.2420956 50.64944349 9.5703125 48 C7.00898343 46.10729097 4.62704701 44.04026191 2.23046875 41.9453125 C0.77363196 40.69051876 -0.73584253 39.4974928 -2.25 38.3125 C-4.375 36.5625 -4.375 36.5625 -5.375 34.5625 C-5.60952516 30.31617332 -5.60339303 26.06599476 -5.61523438 21.81396484 C-5.62493158 19.70239748 -5.6559507 17.59180726 -5.6875 15.48046875 C-5.6940312 14.13542244 -5.69928121 12.79036917 -5.703125 11.4453125 C-5.7124707 10.22215332 -5.72181641 8.99899414 -5.73144531 7.73876953 C-5.26372423 3.57092617 -4.25232957 1.00713069 0 0 Z " fill="#E3715B" transform="translate(402.375,160.4375)"/>
<path d="M0 0 C3.68853113 3.68853113 2.49378617 9.93270533 2.53540039 14.95605469 C2.56216035 17.09781613 2.63697405 19.23449886 2.71289062 21.375 C2.93301245 32.87996642 2.93301245 32.87996642 -1.2890625 37.8046875 C-4.28622709 40.6292954 -7.60775328 43.05713527 -10.96484375 45.4375 C-13.91970232 47.70610543 -16.39717457 50.37577248 -18.98046875 53.05078125 C-20.98438781 54.98493137 -23.04520863 56.5751118 -25.3125 58.1875 C-28.4723889 60.51551245 -30.61979529 62.20443705 -32 66 C-32.63846297 70.80867677 -32.60614189 74.68230024 -30.5625 79.125 C-27.00368567 83.11781608 -23.06839737 86.53782078 -19 90 C-17.66579761 91.1865235 -16.33242301 92.37397867 -15 93.5625 C-12.19209357 96.02852561 -9.2964854 98.31341348 -6.3125 100.5625 C2.5547625 107.45415479 2.5547625 107.45415479 3.609375 113.484375 C4.15453605 118.75205391 4.22183342 124.02070339 4.25 129.3125 C4.270625 130.30056641 4.29125 131.28863281 4.3125 132.30664062 C4.32023437 133.72686523 4.32023437 133.72686523 4.328125 135.17578125 C4.3374707 136.03083252 4.34681641 136.88588379 4.35644531 137.7668457 C4 140 4 140 2.72167969 141.80151367 C0.24843317 143.52317662 -1.96546388 143.0856034 -4.8671875 142.8125 C-7.99579408 141.62064988 -9.67601499 139.39450324 -12 137 C-12.89110977 136.10889023 -13.78221954 135.21778046 -14.70033264 134.29966736 C-32.46688843 116.53311157 -50.23344421 98.76655579 -68 81 C-69.11615944 79.94378197 -69.11615944 79.94378197 -70.25486755 78.8662262 C-72.84137089 76.10024686 -73.4244922 73.70882806 -74 70 C-72.36170318 65.18147994 -69.57989215 62.50294358 -66 59 C-65.1214183 58.1214183 -64.24283661 57.24283661 -63.33763123 56.33763123 C-45.89175415 38.89175415 -28.44587708 21.44587708 -11 4 C-10.29001358 3.24876358 -9.58002716 2.49752716 -8.848526 1.723526 C-5.87141524 -1.05226823 -3.71040898 -1.31659673 0 0 Z " fill="#B46293" transform="translate(86,161)"/>
<path d="M0 0 C-1.94572486 1.46359834 -3.89387066 2.92240964 -5.859375 4.359375 C-12.9203913 9.55301509 -19.25138206 14.98378934 -24.93359375 21.66796875 C-27.62992231 24.71089532 -30.45326861 27.61061332 -33.3125 30.5 C-33.84069336 31.04100342 -34.36888672 31.58200684 -34.91308594 32.1394043 C-36.23639123 33.46634035 -37.61430017 34.73836131 -39 36 C-39.66 36 -40.32 36 -41 36 C-41.38285156 36.86963379 -41.38285156 36.86963379 -41.7734375 37.75683594 C-43.12584777 40.23015312 -44.63732524 41.89602109 -46.625 43.890625 C-47.68460938 44.95410156 -47.68460938 44.95410156 -48.765625 46.0390625 C-49.50296875 46.76867187 -50.2403125 47.49828125 -51 48.25 C-52.10601562 49.36761719 -52.10601562 49.36761719 -53.234375 50.5078125 C-53.94078125 51.21164063 -54.6471875 51.91546875 -55.375 52.640625 C-56.02210938 53.28547852 -56.66921875 53.93033203 -57.3359375 54.59472656 C-59 56 -59 56 -61 56 C-61.21398437 56.55171875 -61.42796875 57.1034375 -61.6484375 57.671875 C-63.453511 60.78119236 -65.94800064 62.91272137 -68.625 65.25 C-69.3984375 65.93835938 -69.3984375 65.93835938 -70.1875 66.640625 C-71.4534602 67.76592296 -72.72607942 68.88372177 -74 70 C-74.66 69.67 -75.32 69.34 -76 69 C-68.0400757 61.01685449 -60.07741464 53.03644981 -52.11129665 45.05948448 C-48.4119719 41.35495226 -44.71357858 37.64950022 -41.01733398 33.94189453 C-37.44690997 30.36056556 -33.87401329 26.78172038 -30.29942513 23.20454788 C-28.93947988 21.84276207 -27.58041168 20.48009978 -26.22225761 19.11652756 C-24.31254968 17.19950813 -22.39968128 15.28569458 -20.48608398 13.37255859 C-19.93150513 12.81438446 -19.37692627 12.25621033 -18.80554199 11.68112183 C-6.9117583 -0.18188838 -6.9117583 -0.18188838 0 0 Z " fill="#E49258" transform="translate(293,92)"/>
<path d="M0 0 C0.99 0.33 1.98 0.66 3 1 C2.14535156 1.80824219 1.29070312 2.61648438 0.41015625 3.44921875 C-0.7062542 4.5281028 -1.8221108 5.60756017 -2.9375 6.6875 C-3.50146484 7.21794922 -4.06542969 7.74839844 -4.64648438 8.29492188 C-7.78778253 11.36097936 -9.73537014 13.39885498 -10 18 C-10.99 17.67 -11.98 17.34 -13 17 C-18.445 22.445 -18.445 22.445 -24 28 C-24.66 27.67 -25.32 27.34 -26 27 C-25.28765464 25.55409047 -24.55426662 24.11853898 -23.8125 22.6875 C-23.40644531 21.88699219 -23.00039062 21.08648437 -22.58203125 20.26171875 C-20.69622185 17.56570976 -18.83775658 16.62877153 -16 15 C-14.26781405 13.40126443 -12.58127454 11.75200551 -10.9375 10.0625 C-10.10089844 9.20785156 -9.26429688 8.35320312 -8.40234375 7.47265625 C-6.87263094 5.89817135 -5.34387912 4.3227518 -3.81640625 2.74609375 C-2 1 -2 1 0 0 Z " fill="#BA4C95" transform="translate(243,285)"/>
<path d="M0 0 C0.495 1.485 0.495 1.485 1 3 C-0.22916667 4.22916667 -1.45833333 5.45833333 -2.6875 6.6875 C-3.41453125 7.41710937 -4.1415625 8.14671875 -4.890625 8.8984375 C-6.11953025 10.12279125 -7.35566223 11.34012359 -8.609375 12.5390625 C-10.87963332 14.71583959 -11.98326499 15.94979496 -13 19 C-14.8203125 20.32421875 -14.8203125 20.32421875 -17.125 21.6875 C-21.25409479 24.32517096 -24.08951033 27.15617072 -27.1796875 30.921875 C-29.84069368 33.95976189 -32.88948327 36.48995014 -35.94140625 39.125 C-37.69078609 40.71836304 -39.12106268 42.26132346 -40.5625 44.125 C-43.62548499 47.73775153 -47.13680959 50.29672532 -51 53 C-49.4402101 49.25815246 -47.13267827 46.89097222 -44.27490234 44.04785156 C-43.79668533 43.5693425 -43.31846832 43.09083344 -42.82575989 42.5978241 C-41.25051517 41.02396805 -39.66831465 39.45730707 -38.0859375 37.890625 C-36.98976787 36.79818714 -35.89404019 35.70530566 -34.79873657 34.61199951 C-31.91960112 31.74048758 -29.03450944 28.87503346 -26.14813232 26.01080322 C-23.20190185 23.08505874 -20.26134931 20.15361986 -17.3203125 17.22265625 C-11.55241412 11.47618518 -5.77821036 5.73610194 0 0 Z " fill="#E7A95E" transform="translate(223,19)"/>
<path d="M0 0 C0.66 0 1.32 0 2 0 C3.05099189 3.41795079 3.08801017 6.48923068 3.02172852 10.05371094 C3.00163223 11.27467468 2.98153595 12.49563843 2.96083069 13.75360107 C2.93379562 15.06725647 2.90676056 16.38091187 2.87890625 17.734375 C2.85459146 19.0962849 2.83074859 20.45820331 2.80735779 21.82012939 C2.74465193 25.39749871 2.67554744 28.97471675 2.60510254 32.55194092 C2.53429682 36.20513036 2.4695532 39.85842671 2.40429688 43.51171875 C2.27545865 50.67459744 2.1398594 57.83732713 2 65 C-0.33761804 61.49357293 -0.2438598 60.1114405 -0.22705078 55.96801758 C-0.22682419 54.10642754 -0.22682419 54.10642754 -0.22659302 52.20722961 C-0.2163798 50.8529952 -0.20594781 49.49876242 -0.1953125 48.14453125 C-0.19158167 46.75876571 -0.18873503 45.37299752 -0.18673706 43.98722839 C-0.17910608 40.3424652 -0.1594623 36.69786176 -0.1373291 33.05316162 C-0.11685908 29.33298911 -0.10773288 25.61279074 -0.09765625 21.89257812 C-0.07621581 14.5949793 -0.04208644 7.29751205 0 0 Z " fill="#9E574E" transform="translate(96,116)"/>
<path d="M0 0 C9.48346015 -0.04627819 18.96688161 -0.08184612 28.45042992 -0.10362434 C32.85371251 -0.11407518 37.25691802 -0.12825796 41.66015625 -0.15087891 C45.90709824 -0.17256112 50.15396596 -0.18455883 54.40095901 -0.18975449 C56.02373042 -0.19345858 57.64649762 -0.20069146 59.26923752 -0.21146011 C61.53684117 -0.2259138 63.80413528 -0.22798054 66.07177734 -0.22705078 C67.36417328 -0.231492 68.65656921 -0.23593323 69.98812866 -0.24050903 C73 0 73 0 75 2 C75 6.65279527 72.36815285 9.30795162 69.47265625 12.64453125 C68 14 68 14 66 14 C65.67 14.99 65.34 15.98 65 17 C65 15.68 65 14.36 65 13 C65.66 13 66.32 13 67 13 C67.66 11.68 68.32 10.36 69 9 C69.66 9 70.32 9 71 9 C71.33 7.68 71.66 6.36 72 5 C71.01 5 70.02 5 69 5 C69.33 4.01 69.66 3.02 70 2 C69.18202942 2.00444122 68.36405884 2.00888245 67.52130127 2.01345825 C59.81129448 2.05353856 52.10133823 2.08398621 44.39125443 2.10362434 C40.42745773 2.1140599 36.46374714 2.12821492 32.5 2.15087891 C28.67449853 2.17261545 24.84907988 2.18457034 21.02352142 2.18975449 C19.56428473 2.19344879 18.10505256 2.20066283 16.64585114 2.21146011 C14.60136635 2.225986 12.55722343 2.22797751 10.51269531 2.22705078 C9.34909485 2.231492 8.18549438 2.23593323 6.9866333 2.24050903 C4.09321669 2.0075066 2.44190405 1.51118484 0 0 Z " fill="#E99D66" transform="translate(121,91)"/>
<path d="M0 0 C0.99 0.33 1.98 0.66 3 1 C2.50371094 1.4125 2.00742188 1.825 1.49609375 2.25 C0.81675781 2.8275 0.13742188 3.405 -0.5625 4 C-1.22378906 4.556875 -1.88507813 5.11375 -2.56640625 5.6875 C-4.62400536 7.64271456 -6.42702632 9.61481248 -8.26953125 11.765625 C-11.96887359 16.05132129 -15.97079981 19.90991703 -20.125 23.75 C-20.81464844 24.39582031 -21.50429687 25.04164063 -22.21484375 25.70703125 C-25.70392677 28.95594794 -29.21961601 32.08748626 -33 35 C-32.61257499 31.51317492 -31.11293552 29.99022555 -28.6652832 27.61694336 C-26.62795379 25.63875355 -24.63386094 23.62031374 -22.63671875 21.6015625 C-20.98704484 19.94264302 -19.33730342 18.28379068 -17.6875 16.625 C-16.87087891 15.8 -16.05425781 14.975 -15.21289062 14.125 C-11.39898641 10.29590095 -7.55656205 6.49872258 -3.58203125 2.8359375 C-2.96175049 2.26149902 -2.34146973 1.68706055 -1.70239258 1.09521484 C-1.14060303 0.73379395 -0.57881348 0.37237305 0 0 Z " fill="#CB6356" transform="translate(205,172)"/>
<path d="M0 0 C-0.50789063 0.37511719 -1.01578125 0.75023437 -1.5390625 1.13671875 C-9.26807343 6.65106018 -9.26807343 6.65106018 -15.875 13.375 C-17.75401464 15.69613573 -19.5477523 17.39550626 -21.8125 19.3125 C-25.46977095 22.41605329 -28.52571314 25.78383913 -31.5546875 29.49609375 C-32.03164063 29.99238281 -32.50859375 30.48867187 -33 31 C-33.66 31 -34.32 31 -35 31 C-33.40767873 27.10183339 -30.88570894 24.65684476 -27.9140625 21.71875 C-27.41587006 21.22338745 -26.91767761 20.7280249 -26.40438843 20.21765137 C-24.81591046 18.64032465 -23.22062599 17.07009212 -21.625 15.5 C-20.55943508 14.44447535 -19.49432601 13.3884903 -18.4296875 12.33203125 C-16.46715121 10.38578395 -14.50153252 8.4428562 -12.53369141 6.50195312 C-10.94869326 4.93680946 -9.38452633 3.3499523 -7.85302734 1.73242188 C-5.02074763 -0.9155171 -3.68899434 -1.22966478 0 0 Z " fill="#AC414B" transform="translate(85,161)"/>
<path d="M0 0 C3.91841827 1.30613942 6.32640809 2.83129848 9 6 C9 6.66 9 7.32 9 8 C9.57878906 8.06574219 10.15757813 8.13148438 10.75390625 8.19921875 C13.89368059 9.31861656 14.97157298 11.15363236 16.9375 13.8125 C19.67453166 17.49633784 22.38466177 20.18487198 26 23 C27.14037391 24.21705849 28.2496462 25.46468843 29.3125 26.75 C29.82425781 27.36359375 30.33601563 27.9771875 30.86328125 28.609375 C31.42595703 29.29773438 31.42595703 29.29773438 32 30 C31.67 30.66 31.34 31.32 31 32 C26.58165052 27.60691362 22.16715378 23.20998376 17.75537109 18.81030273 C16.25268527 17.31265948 14.74910507 15.81591309 13.24462891 14.32006836 C11.08783449 12.17534291 8.93423049 10.0274594 6.78125 7.87890625 C6.10316284 7.20598038 5.42507568 6.5330545 4.72644043 5.83973694 C3.79547546 4.90888527 3.79547546 4.90888527 2.84570312 3.95922852 C2.29499146 3.41073746 1.74427979 2.8622464 1.17687988 2.2971344 C0 1 0 1 0 0 Z " fill="#AF7FB9" transform="translate(28,251)"/>
<path d="M0 0 C-0.47409648 4.31730413 -3.03396703 6.33647461 -6.0625 9.25 C-6.98160156 10.14203125 -7.90070313 11.0340625 -8.84765625 11.953125 C-9.55792969 12.62859375 -10.26820313 13.3040625 -11 14 C-11.99 13.67 -12.98 13.34 -14 13 C-12.4700928 9.39438086 -10.31303068 7.0140801 -7.5625 4.25 C-6.78003906 3.45078125 -5.99757812 2.6515625 -5.19140625 1.828125 C-3 0 -3 0 0 0 Z " fill="#291231" transform="translate(237,286)"/>
<path d="M0 0 C0 3.74016583 -0.9341591 4.45276193 -3.375 7.1875 C-4.00148437 7.90292969 -4.62796875 8.61835938 -5.2734375 9.35546875 C-7 11 -7 11 -9 11 C-9.21398437 11.55171875 -9.42796875 12.1034375 -9.6484375 12.671875 C-11.453511 15.78119236 -13.94800064 17.91272137 -16.625 20.25 C-17.140625 20.70890625 -17.65625 21.1678125 -18.1875 21.640625 C-19.4534602 22.76592296 -20.72607942 23.88372177 -22 25 C-22.66 24.67 -23.32 24.34 -24 24 C-16.08 16.08 -8.16 8.16 0 0 Z " fill="#E08459" transform="translate(241,137)"/>
<path d="M0 0 C-1.87892171 1.41844199 -3.7575647 2.82956405 -5.68359375 4.18359375 C-12.65771971 9.16955017 -18.77217305 15.13293132 -25 21 C-25.66 20.67 -26.32 20.34 -27 20 C-7.08315257 -0.18639875 -7.08315257 -0.18639875 0 0 Z " fill="#E5A15C" transform="translate(293,92)"/>
<path d="M0 0 C4.6712385 0.31464301 6.67158711 2.23406993 9.8125 5.5625 C10.60269531 6.38878906 11.39289063 7.21507812 12.20703125 8.06640625 C12.79871094 8.70449219 13.39039063 9.34257812 14 10 C13.67 10.99 13.34 11.98 13 13 C9.60443872 11.53823371 7.43515037 9.64776008 4.875 7 C4.19179687 6.29875 3.50859375 5.5975 2.8046875 4.875 C1.91136719 3.946875 1.91136719 3.946875 1 3 C0.34 2.34 -0.32 1.68 -1 1 C-0.67 0.67 -0.34 0.34 0 0 Z " fill="#2D1F43" transform="translate(171,213)"/>
<path d="M0 0 C0.99 0.33 1.98 0.66 3 1 C-7.546875 11.546875 -7.546875 11.546875 -9.36816406 13.36035156 C-10.69167416 14.69019804 -11.990405 16.04467377 -13.28125 17.40625 C-15.43064694 19.39932716 -17.12845173 19.68093908 -20 20 C-13.33333333 13.33333333 -6.66666667 6.66666667 0 0 Z " fill="#4BB2E3" transform="translate(264,438)"/>
<path d="M0 0 C0 3 0 3 -1.34179688 4.69824219 C-1.96119141 5.30829102 -2.58058594 5.91833984 -3.21875 6.546875 C-3.90453125 7.2275 -4.5903125 7.908125 -5.296875 8.609375 C-6.02390625 9.31578125 -6.7509375 10.0221875 -7.5 10.75 C-8.19609375 11.4409375 -8.8921875 12.131875 -9.609375 12.84375 C-14.25030363 17.41592413 -19.04960571 21.76584714 -24 26 C-24.66 25.67 -25.32 25.34 -26 25 C-25.50628906 24.51789063 -25.01257813 24.03578125 -24.50390625 23.5390625 C-23.54291016 22.59160156 -23.54291016 22.59160156 -22.5625 21.625 C-21.92441406 20.99851562 -21.28632813 20.37203125 -20.62890625 19.7265625 C-18.92117824 18.08276939 -18.92117824 18.08276939 -18 16 C-17.29488281 15.60167969 -16.58976562 15.20335937 -15.86328125 14.79296875 C-12.1027056 12.43811988 -9.26737219 9.48164385 -6.1875 6.3125 C-5.59001953 5.70599609 -4.99253906 5.09949219 -4.37695312 4.47460938 C-2.91335815 2.98759688 -1.45603898 1.49441189 0 0 Z " fill="#6D60A7" transform="translate(311,394)"/>
<path d="M0 0 C0.33 0.99 0.66 1.98 1 3 C-7.10546875 11.10546875 -7.10546875 11.10546875 -8.56518555 12.5612793 C-9.95892013 13.95880829 -11.33906547 15.36984858 -12.71875 16.78125 C-14.77839745 18.78446875 -16.36550065 19.92668545 -19 21 C-17.54254576 17.63664406 -15.68882146 15.45465995 -13.0859375 12.890625 C-12.32539063 12.13652344 -11.56484375 11.38242187 -10.78125 10.60546875 C-9.9871875 9.82816406 -9.193125 9.05085938 -8.375 8.25 C-7.57320313 7.45722656 -6.77140625 6.66445313 -5.9453125 5.84765625 C-3.96797154 3.89385507 -1.98611091 1.94487897 0 0 Z " fill="#7B8CC9" transform="translate(269,393)"/>
<path d="M0 0 C0.99 0.33 1.98 0.66 3 1 C-0.465 3.97 -0.465 3.97 -4 7 C-4.33 5.68 -4.66 4.36 -5 3 C-2.6875 1.4375 -2.6875 1.4375 0 0 Z " fill="#B83C78" transform="translate(243,285)"/>
<path d="M0 0 C1.32 0.33 2.64 0.66 4 1 C3.68563548 6.18701457 0.69966733 9.5947359 -3 13 C-3.66 13 -4.32 13 -5 13 C-5.33 13.99 -5.66 14.98 -6 16 C-6 14.68 -6 13.36 -6 12 C-5.34 12 -4.68 12 -4 12 C-3.34 10.68 -2.68 9.36 -2 8 C-1.34 8 -0.68 8 0 8 C0.33 6.68 0.66 5.36 1 4 C0.01 4 -0.98 4 -2 4 C-1.34 2.68 -0.68 1.36 0 0 Z " fill="#E89760" transform="translate(192,92)"/>
<path d="M0 0 C0 4.22360888 -1.86257093 5.43175587 -4.6875 8.5 C-5.55761719 9.4590625 -6.42773438 10.418125 -7.32421875 11.40625 C-9.77213841 13.77912394 -12.00683359 15.40364458 -15 17 C-13.67879172 14.06769807 -12.25361803 12.01335101 -9.9609375 9.765625 C-9.38085938 9.19199219 -8.80078125 8.61835938 -8.203125 8.02734375 C-7.59984375 7.44082031 -6.9965625 6.85429687 -6.375 6.25 C-5.76398437 5.64800781 -5.15296875 5.04601562 -4.5234375 4.42578125 C-3.02011376 2.94594695 -1.51065144 1.47235324 0 0 Z " fill="#B0547F" transform="translate(49,191)"/>
<path d="M0 0 C5.57906089 2.47958262 9.89314115 6.55090292 14 11 C14.33 11.99 14.66 12.98 15 14 C15.66 14 16.32 14 17 14 C17 14.66 17 15.32 17 16 C14.08462499 14.68285542 12.0152987 13.26341874 9.765625 10.99609375 C9.19199219 10.42052734 8.61835938 9.84496094 8.02734375 9.25195312 C7.44082031 8.65318359 6.85429687 8.05441406 6.25 7.4375 C5.64800781 6.83486328 5.04601562 6.23222656 4.42578125 5.61132812 C0 1.14038584 0 1.14038584 0 0 Z " fill="#62B4E4" transform="translate(216,437)"/>
<path d="M0 0 C2.3125 0.5 2.3125 0.5 5 2 C6.34219295 4.5690412 7.20425705 7.21813439 8 10 C7.01 10.495 7.01 10.495 6 11 C0.21293801 5.51752022 0.21293801 5.51752022 -1 2 C-0.67 1.34 -0.34 0.68 0 0 Z " fill="#A14D5A" transform="translate(165,209)"/>
<path d="M0 0 C0 3 0 3 -1.828125 5.0859375 C-2.62734375 5.84132812 -3.4265625 6.59671875 -4.25 7.375 C-6.84552956 9.8727388 -9.19000734 12.23872717 -11.4375 15.0625 C-12.2109375 16.0215625 -12.2109375 16.0215625 -13 17 C-13.66 17 -14.32 17 -15 17 C-13.67879172 14.06769807 -12.25361803 12.01335101 -9.9609375 9.765625 C-9.38085938 9.19199219 -8.80078125 8.61835938 -8.203125 8.02734375 C-7.59984375 7.44082031 -6.9965625 6.85429687 -6.375 6.25 C-5.76398437 5.64800781 -5.15296875 5.04601562 -4.5234375 4.42578125 C-3.02011376 2.94594695 -1.51065144 1.47235324 0 0 Z " fill="#A9485C" transform="translate(65,175)"/>
<path d="M0 0 C4.11979807 1.37326602 7.04297546 4.08595092 9 8 C8.67 8.66 8.34 9.32 8 10 C6 9 4 8 2 7 C1.26924352 4.6859378 0.59861742 2.35171131 0 0 Z " fill="#F6C64A" transform="translate(245,5)"/>
<path d="M0 0 C0.66 0.33 1.32 0.66 2 1 C1.38125 1.7425 0.7625 2.485 0.125 3.25 C-2.00429339 5.7904126 -2.00429339 5.7904126 -3 8.1875 C-4.2717905 10.49262027 -5.59924415 11.03969766 -8 12 C-7.40312566 8.65750371 -6.26396123 6.53563658 -4 4 C-3.34 4 -2.68 4 -2 4 C-1.34 2.68 -0.68 1.36 0 0 Z " fill="#8F499D" transform="translate(297,359)"/>
<path d="M0 0 C0.66 0.33 1.32 0.66 2 1 C0.56877218 2.48523642 -0.87020889 3.96300462 -2.3125 5.4375 C-3.11300781 6.26121094 -3.91351563 7.08492188 -4.73828125 7.93359375 C-7 10 -7 10 -10 11 C-9.03049703 7.73894457 -8.44238139 6.29492093 -5.5625 4.375 C-4.716875 3.92125 -3.87125 3.4675 -3 3 C-1.24850835 1.41754725 -1.24850835 1.41754725 0 0 Z " fill="#C14D65" transform="translate(416,291)"/>
<path d="M0 0 C0.66 0.33 1.32 0.66 2 1 C0.95125002 3.62187494 0.35068687 4.79371361 -2.125 6.25 C-2.74375 6.4975 -3.3625 6.745 -4 7 C-2.68 4.69 -1.36 2.38 0 0 Z " fill="#B35DA4" transform="translate(221,306)"/>
<path d="M0 0 C0.33 0.99 0.66 1.98 1 3 C-1.64 5.64 -4.28 8.28 -7 11 C-7.33 10.01 -7.66 9.02 -8 8 C-5.36 5.36 -2.72 2.72 0 0 Z " fill="#7F7FC2" transform="translate(269,393)"/>
<path d="M0 0 C0.33 0.99 0.66 1.98 1 3 C-1.31 5.31 -3.62 7.62 -6 10 C-6.99 9.67 -7.98 9.34 -9 9 C-6.03 6.03 -3.06 3.06 0 0 Z " fill="#E0B55C" transform="translate(233,9)"/>
<path d="M0 0 C0.99 0.33 1.98 0.66 3 1 C2.43410156 1.48210937 1.86820313 1.96421875 1.28515625 2.4609375 C0.55167969 3.09257812 -0.18179688 3.72421875 -0.9375 4.375 C-1.66839844 5.00148437 -2.39929688 5.62796875 -3.15234375 6.2734375 C-5.08380906 7.87747714 -5.08380906 7.87747714 -6 10 C-6.66 10 -7.32 10 -8 10 C-8 7 -8 7 -6.35546875 5.140625 C-5.64003906 4.51671875 -4.92460937 3.8928125 -4.1875 3.25 C-3.47980469 2.61578125 -2.77210938 1.9815625 -2.04296875 1.328125 C-1.36878906 0.88984375 -0.69460937 0.4515625 0 0 Z " fill="#CF7157" transform="translate(205,172)"/>
<path d="M0 0 C0.99 0.33 1.98 0.66 3 1 C0.36 3.64 -2.28 6.28 -5 9 C-5.66 8.34 -6.32 7.68 -7 7 C-4.69 4.69 -2.38 2.38 0 0 Z " fill="#55A4DB" transform="translate(264,438)"/>
<path d="M0 0 C0.99 0.33 1.98 0.66 3 1 C-0.49359465 4.59634744 -4.11098131 7.83451967 -8 11 C-8 10.01 -8 9.02 -8 8 C-6.36395804 6.62926214 -4.69321939 5.29944744 -3 4 C-1.23676495 1.87396815 -1.23676495 1.87396815 0 0 Z " fill="#E28D58" transform="translate(110,96)"/>
<path d="M0 0 C0.66 0.33 1.32 0.66 2 1 C-0.31 3.31 -2.62 5.62 -5 8 C-5.33 6.68 -5.66 5.36 -6 4 C-4.15840327 1.51384442 -2.99529289 0.99843096 0 0 Z " fill="#C55366" transform="translate(424,283)"/>
<path d="M0 0 C0.66 0.33 1.32 0.66 2 1 C1.67 1.66 1.34 2.32 1 3 C0.34 3 -0.32 3 -1 3 C-1.268125 3.78375 -1.53625 4.5675 -1.8125 5.375 C-3 8 -3 8 -6 10 C-5.49477778 5.62140745 -2.82172778 3.18348776 0 0 Z " fill="#974194" transform="translate(305,349)"/>
<path d="M0 0 C3.44429252 1.53079667 6.09516673 3.61654706 9 6 C9.99 6.66 10.98 7.32 12 8 C11.01 8.33 10.02 8.66 9 9 C6.9921875 7.63671875 6.9921875 7.63671875 4.875 5.6875 C4.17117187 5.05199219 3.46734375 4.41648438 2.7421875 3.76171875 C1 2 1 2 0 0 Z " fill="#CC595E" transform="translate(181,217)"/>
<path d="M0 0 C0.66 0.33 1.32 0.66 2 1 C1.34 2.32 0.68 3.64 0 5 C-0.99 5 -1.98 5 -3 5 C-3 3.68 -3 2.36 -3 1 C-2.01 0.67 -1.02 0.34 0 0 Z " fill="#A64C90" transform="translate(225,302)"/>
<path d="M0 0 C1.12894876 0.93274109 2.25300876 1.87140122 3.375 2.8125 C4.00148438 3.33457031 4.62796875 3.85664063 5.2734375 4.39453125 C7 6 7 6 9 9 C6.0625 8.1875 6.0625 8.1875 3 7 C2.67 6.01 2.34 5.02 2 4 C0.50014391 2.33289654 0.50014391 2.33289654 -1 1 C-0.67 0.67 -0.34 0.34 0 0 Z " fill="#F1BF42" transform="translate(265,24)"/>
<path d="M0 0 C3.43752007 1.5277867 6.18953688 3.50181056 9 6 C9 6.66 9 7.32 9 8 C4.7257442 6.4169423 2.73468206 3.49431596 0 0 Z " fill="#A280B4" transform="translate(66,289)"/>
<path d="M0 0 C0.66 0.33 1.32 0.66 2 1 C-0.31 3.31 -2.62 5.62 -5 8 C-5.33 7.01 -5.66 6.02 -6 5 C-4.02 3.35 -2.04 1.7 0 0 Z " fill="#9E74B0" transform="translate(223,346)"/>
<path d="M0 0 C-4.455 2.97 -4.455 2.97 -9 6 C-7 1 -7 1 -5.0625 -0.375 C-3 -1 -3 -1 0 0 Z " fill="#B63D40" transform="translate(85,161)"/>
<path d="M0 0 C1.32 0.33 2.64 0.66 4 1 C3.67 2.32 3.34 3.64 3 5 C2.01 4.34 1.02 3.68 0 3 C-0.99 3.495 -0.99 3.495 -2 4 C-1.34 2.68 -0.68 1.36 0 0 Z " fill="#F49853" transform="translate(192,92)"/>
<path d="M0 0 C1.98 1.65 3.96 3.3 6 5 C4.02 5.99 4.02 5.99 2 7 C0 4 0 4 0 0 Z " fill="#D87B5C" transform="translate(453,208)"/>
<path d="M0 0 C0.66 0.33 1.32 0.66 2 1 C0.38405168 3.04119788 -1.2856382 5.04072937 -3 7 C-3.66 7 -4.32 7 -5 7 C-3.70700306 4.11562221 -2.34058637 2.12780579 0 0 Z " fill="#B04B69" transform="translate(55,185)"/>
</svg>
